<svg xmlns="http://www.w3.org/2000/svg" width="512" height="512" viewBox="0 0 512 512" role="img" aria-label="LedgerA icon 512">
  <rect width="512" height="512" rx="112" fill="#0f172a" />
  <circle cx="256" cy="256" r="170" fill="#0b1324" />
  <path d="M276 146c-54.8 0-93 27.2-93 71 0 37.8 26.6 58.2 72.8 69.2l26.2 6.4c30.8 7.4 42 16 42 30.4 0 18.2-19.2 29.8-49 29.8-29.2 0-50-11.8-56.4-33h-46.2c5.8 44.8 44.6 72.4 102.8 72.4 59.6 0 100.6-28.2 100.6-74 0-38.4-25.6-58.6-78.8-71.4l-26.2-6.4c-28.2-6.8-36.2-14.4-36.2-27.2 0-16.6 17.6-27.8 44.6-27.8 28.2 0 45.8 11.2 51.6 29.8h46.8c-5.8-41.4-42-69-100.2-69z" fill="#ffffff" />
</svg>
