<svg xmlns="http://www.w3.org/2000/svg" width="192" height="192" viewBox="0 0 192 192" role="img" aria-label="LedgerA icon 192">
  <rect width="192" height="192" rx="42" fill="#0f172a" />
  <circle cx="96" cy="96" r="64" fill="#0b1324" />
  <path d="M103.4 54c-20.6 0-35 10.2-35 26.6 0 14.2 10 21.8 27.4 26l9.8 2.4c11.6 2.8 15.8 6 15.8 11.4 0 6.8-7.2 11.2-18.4 11.2-11 0-18.8-4.4-21.2-12.4h-17.4c2.2 16.8 16.8 27.2 38.6 27.2 22.4 0 37.8-10.6 37.8-27.8 0-14.4-9.6-22-29.6-26.8l-9.8-2.4c-10.6-2.6-13.6-5.4-13.6-10.2 0-6.2 6.6-10.4 16.8-10.4 10.6 0 17.2 4.2 19.4 11.2H141c-2.2-15.6-15.8-26-37.6-26z" fill="#ffffff" />
</svg>
